# xmcd
#
# Track frame offsets: 
#        150
#        16736
#        32823
#        53469
#        74932
#        97519
#        116650
#        132701
#        154410
#        170013
#        187457
#        203677
#
# Disc length: 2982 seconds
#
# Revision: 0
# Processed by: cddbd v1.5.2PL0 Copyright (c) Steve Scherf et al.
# Submitted via: ExactAudioCopy v1.0b1
#
DISCID=ad0ba40c
DTITLE=Biber - Point Of No Return
DYEAR=2013
DGENRE=Blues
TTITLE0=You Don't Know What Love Is
TTITLE1=Slave To Love
TTITLE2=Nobody Cares
TTITLE3=There's Always A Better Way
TTITLE4=If You Could See The Future
TTITLE5=The End Is Near
TTITLE6=Your Heart Will Be Free
TTITLE7=Love Is The Key
TTITLE8=All That's Left Is The Blues
TTITLE9=Grain Of Salt
TTITLE10=Yes We Can
TTITLE11=Point Of No Return
EXTD=
EXTT0=
EXTT1=
EXTT2=
EXTT3=
EXTT4=
EXTT5=
EXTT6=
EXTT7=
EXTT8=
EXTT9=
EXTT10=
EXTT11=
PLAYORDER=
